<svg width="34" height="34" viewBox="0 0 34 34" fill="none" xmlns="http://www.w3.org/2000/svg">
<path d="M0 1.13333C0 0.507411 0.50741 0 1.13333 0H4.53333C5.05338 0 5.5067 0.353937 5.63283 0.85846L6.55155 4.53333H32.8667C33.2038 4.53333 33.5235 4.68344 33.7388 4.94288C33.9541 5.20232 34.0427 5.54415 33.9806 5.87553L30.5806 24.0089C30.4801 24.5449 30.012 24.9333 29.4667 24.9333H27.2H11.3333H9.06666C8.52129 24.9333 8.05325 24.5449 7.95274 24.0089L4.55897 5.90875L3.64845 2.26667H1.13333C0.50741 2.26667 0 1.75926 0 1.13333ZM7.03225 6.8L10.0072 22.6667H28.5261L31.5011 6.8H7.03225ZM11.3333 24.9333C8.82964 24.9333 6.8 26.963 6.8 29.4667C6.8 31.9704 8.82964 34 11.3333 34C13.837 34 15.8667 31.9704 15.8667 29.4667C15.8667 26.963 13.837 24.9333 11.3333 24.9333ZM27.2 24.9333C24.6963 24.9333 22.6667 26.963 22.6667 29.4667C22.6667 31.9704 24.6963 34 27.2 34C29.7037 34 31.7333 31.9704 31.7333 29.4667C31.7333 26.963 29.7037 24.9333 27.2 24.9333ZM11.3333 27.2C12.5852 27.2 13.6 28.2148 13.6 29.4667C13.6 30.7185 12.5852 31.7333 11.3333 31.7333C10.0815 31.7333 9.06666 30.7185 9.06666 29.4667C9.06666 28.2148 10.0815 27.2 11.3333 27.2ZM27.2 27.2C28.4518 27.2 29.4667 28.2148 29.4667 29.4667C29.4667 30.7185 28.4518 31.7333 27.2 31.7333C25.9481 31.7333 24.9333 30.7185 24.9333 29.4667C24.9333 28.2148 25.9481 27.2 27.2 27.2Z" fill="currentColor"/>
<path fill-rule="evenodd" clip-rule="evenodd" d="M19.2454 10.4656C22.0926 7.53903 29.2107 12.6605 19.2454 19.2453C9.27998 12.6605 16.3981 7.53903 19.2454 10.4656Z" fill="currentColor"/>
</svg>
