<?xml version="1.0" encoding="UTF-8"?>
<svg width="51.634" height="48.495" fill="none" version="1.1" viewBox="0 0 51.634 48.495" xmlns="http://www.w3.org/2000/svg">
 <path d="m17.634 15.629c0-0.62592 0.50741-1.1333 1.1333-1.1333h3.4c0.52005 0 0.97337 0.35394 1.0995 0.85846l0.91872 3.6749h26.315c0.3371 0 0.6568 0.15011 0.8721 0.40955s0.3039 0.60127 0.2418 0.93265l-3.4 18.133c-0.1005 0.536-0.5686 0.9244-1.1139 0.9244h-20.4c-0.54537 0-1.0134-0.3884-1.1139-0.9244l-3.3938-18.1-0.91052-3.6421h-2.5151c-0.62592 0-1.1333-0.50741-1.1333-1.1333zm7.0322 5.6667 2.975 15.867h18.519l2.975-15.867zm4.301 18.133c-2.5037 0-4.5333 2.0297-4.5333 4.5334s2.0296 4.5333 4.5333 4.5333c2.5037 0 4.5334-2.0296 4.5334-4.5333s-2.0297-4.5334-4.5334-4.5334zm15.867 0c-2.5037 0-4.5333 2.0297-4.5333 4.5334s2.0296 4.5333 4.5333 4.5333 4.5333-2.0296 4.5333-4.5333-2.0296-4.5334-4.5333-4.5334zm-15.867 2.2667c1.2519 0 2.2667 1.0148 2.2667 2.2667 0 1.2518-1.0148 2.2666-2.2667 2.2666-1.2518 0-2.2666-1.0148-2.2666-2.2666 0-1.2519 1.0148-2.2667 2.2666-2.2667zm15.867 0c1.2518 0 2.2667 1.0148 2.2667 2.2667 0 1.2518-1.0149 2.2666-2.2667 2.2666-1.2519 0-2.2667-1.0148-2.2667-2.2666 0-1.2519 1.0148-2.2667 2.2667-2.2667z" fill="currentColor"/>
 <g fill-rule="evenodd">
  <path d="m36.88 24.961c2.8472-2.9266 9.9653 2.1949 0 8.7797-9.9654-6.5848-2.8473-11.706 0-8.7797z" clip-rule="evenodd" fill="currentColor"/>
  <path d="m16.989 1.5359c-2.5179 1.8602-4.8053 4.5388-6.2544 6.8447-1.4501 2.3063-5.2893 8.1878-6.0353 9.8746-0.72321 1.6357-1.9549 2.5737-2.0047 4.2725-0.019007 0.65553 2.4559 1.6823 2.8808 1.7252 1.1034 0.11352 2.3055-1.2724 2.9773-1.5802 2.1797-0.99921 4.3586-2.1685 7.2295-1.4371-0.25384 0.5946 0.23346-0.1255 0.83155 4.0302 0.21088 1.4649 0.88093 5.2209 1.9474 5.5849 1.0599 0.36176 0.56873-2.4154 1.5217-2.32-6.44e-4 0.0014 7.51e-4 0.0021 2.15e-4 0.0035l7.51e-4 0.0021c4.3e-4 9.95e-4 2.15e-4 0.0035 0.0012 0.0031 0 0 2e-3 -7.74e-4 0.0024 3.33e-4 2e-3 -7.76e-4 8e-3 -3e-3 0.01266-6e-3 0.0014 6.64e-4 0.0034-9.6e-5 0.0054-8.85e-4 0.0072 8.85e-4 0.01341 0.0021 0.01961 0.0032l-9.1e-5 -0.01535c0.34147-0.24295 2.7912-2.6995 5.7-3.1737 1.6391-0.26741 3.745-2.034 4.9734-3.0051 1.9482-1.5383 4.8188-3.3458 6.7791-4.1242 1.444-0.57278 2.4371-1.9158 3.7997-2.5397 0.80349-0.36787-1.0052-2.8256-1.1324-3.1091-0.61018-1.3623-3.1055-2.8724-4.6946-4.4495-1.5881-1.5774-3.9577-3.4483-6.2755-4.7418-2.318-1.294-5.4064-2.9367-7.2124-3.121-1.805-0.18465-2.3404-0.7395-5.0734 1.2794z" fill="#d00000" stroke="#000" stroke-width=".090856px"/>
  <path d="m12.785 10.753c-1.6581 1.1449-0.93406 7.7688-2.7923 9.6649-1.2161 1.2398-4.8423 3.7924-4.4174 3.8353 1.1034 0.11352 2.3055-1.2724 2.9773-1.5802 2.1797-0.99921 4.3586-2.1685 7.2295-1.4371-0.25384 0.5946 0.23346-0.1255 0.83155 4.0302 0.21088 1.4649 0.88093 5.2209 1.9474 5.5849 1.0599 0.36176 0.56873-2.4154 1.5217-2.32-6.44e-4 0.0014 7.51e-4 0.0021 2.15e-4 0.0035l7.51e-4 0.0021c4.3e-4 9.95e-4 2.15e-4 0.0035 0.0012 0.0031 0 0 2e-3 -7.74e-4 0.0024 3.33e-4 2e-3 -7.76e-4 8e-3 -3e-3 0.01266-6e-3 0.0014 6.64e-4 0.0034-9.6e-5 0.0054-8.85e-4 0.0072 8.85e-4 0.01341 0.0021 0.01961 0.0032l-9.1e-5 -0.01535c0.34147-0.24295 2.7912-2.6995 5.7-3.1737 1.6391-0.26741 3.745-2.034 4.9734-3.0051 1.9482-1.5383 4.8188-3.3458 6.7791-4.1242 1.444-0.57278 2.4371-1.9158 3.7997-2.5397 0.80349-0.36787-4.9531 2.394-3.2514-0.26798 0.7544-1.18-9.9221 5.5951-16.363 2.0282-6.3773-3.5327-7.2807-7.8576-8.9778-6.6854z" fill="#0e0000" opacity=".10112" stroke-width=".10901"/>
  <path d="m38.28 16.385c-0.85199 0.0075-1.5595 0.22924-2.2056 0.5191-0.60514-0.22483-1.0949 0.1081-1.4394 0.38532-0.35469-0.73769-0.70675 1.0427-1.1844 1.2291-0.26477 0.33011-0.33452-0.56068-0.8285-0.02739-0.73091 0.35956-1.7951 0.20409-2.2629 0.66722 0.1794 0.8804-0.85802 1.8046-1.3854 0.96257-0.54956 0.54705-0.94755 1.9707-1.3126 1.0334-1.2655 0.41115-1.3192 1.8713-2.1999 2.6704-0.1868-0.76995-1.8379-0.13241-1.8633 0.75861-0.54067 0.50703-0.69922-1.3277-1.4976-0.64116-1.1636 0.07827-0.3207 2.2135-1.7325 2.2453-1.201 0.40585-0.57363 1.5594-1.0744 2.5946 0.08722 0.85821-0.5139 0.5171-0.85843 0.71269 0.93759 0.65614-1.5818 1.3912-0.33841 2.478 0.23923 1.1135 0.77233 1.7771 1.9785 1.5752 0.17086-0.6439 0.36127-1.191 0.79848-0.28435 0.57483-0.43822 1.0043-1.8726 1.3519-0.6944 0.17719-0.85689 1.4337-1.7391 1.1339-2.4773 0.73409-0.188 1.8337 0.32685 2.0535-0.88324 0.32132-0.95477 0.64584-0.39625 0.8688 0.16372 0.99151 0.42647 1.4169-0.96136 2.1045-1.423-0.53733-0.82887 1.7443-0.72458 0.36658-1.2344 0.25053-0.57915 1.2699-1.2458 1.9698-1.3393 0.77399 0.34011 2.6549 0.06001 2.5051-1.1474-0.27407-0.89101 0.93028-1.6838 1.6518-1.2673 0.5615-1.0958 2.3407-0.47752 2.8525-1.3476-0.99981-0.6387 0.37917-1.8177 0.93639-1.2507 0.46341-0.54429 0.56578-1.9185 1.5252-1.3227 0.64416-0.52458 1.414-1.2076 1.9404-1.701 0.77038 0.6207 1.6735-0.65422 0.78116-1.4208-0.54671-0.58161 1.0636-0.0123 0.39926-0.76159-0.37143-1.0024-1.3249-2.4133-2.394-1.618-0.97127 0.10428-1.2629 0.91658-0.96898 1.8025-0.25249-0.63171-1.5621 0.12256-2.0232 0.5583l-0.14241 0.16586-0.08883 0.15285" fill="#fff" stroke="#000" stroke-width=".56466"/>
 </g>
 <path d="m16.275 23.351c-1.291-4.3488 0.05142-7.0534-1.5988-10.299-0.97536-1.919-2.1464 0.25195-0.86442 1.9147" fill="none" stroke="#000" stroke-width=".090856px"/>
 <g fill-rule="evenodd">
  <path d="m8.6949 23.856c-0.22328 0.83352-0.66554 0.3033-1.0563 0.36529 0.64407 0.942-1.9741 0.74608-1.1969 2.1995-0.17283 1.1258 0.091244 1.9338 1.2914 2.1685 0.38859-0.5424 0.76108-0.98739 0.84803 0.01439 0.69345-0.2081 1.6037-1.3992 1.5103-0.1749 0.47017-0.73943 1.9601-1.1246 1.9408-1.9194 0.75356 0.0808 1.564 0.8136 2.2006-0.24242 0.6387-0.77928 0.7804-0.0066 0.79006 0.59553 0.77611 0.74718 1.666-0.40182 2.4732-0.59221-0.20718-0.96414 0.95215-0.17047 0.78255-1.0261-0.11164-0.56011 3.6111-0.39407 3.0754-0.942-1.5994-1.6372-4.0995 0.8291-4.4613 0.67191-0.36068-0.15718-0.76108-0.06198-0.25548-0.30109 0.5056-0.2391-0.72351 0.15386-1.7476-0.22028-1.023-0.37525-1.7723 0.09851-1.841 1.0339-0.77074-0.4948-0.82656 0.06753-2.0267 0.41178 0.7643-1.1545-1.3526-0.30662-1.3526-0.30662s0.36819-1.2652-0.29413-1.0981c0.35639-0.66084-0.039715-0.86341-0.039715-0.86341s0.19537-0.56675-0.64085 0.22582z" opacity=".11236" stroke-width=".10901"/>
  <path d="m2.8125 20.755c-0.22159-0.19014-0.65409-0.10352-0.78398-0.28785 0.00143-0.27031-0.29141 0.03603-0.41146-0.06799-0.28641 0.51335-0.80929 0.88592-0.93581 1.4919 0.15185-0.0996 0.056286-0.35006-0.054696-0.09661-0.2751 0.30322-0.4888 0.73367-0.19363 1.1245 0.11636 0.21308-0.084771 0.50983 0.271 0.43781 0.093157 0.37678-0.43697 0.55803-0.31655 0.87607 0.24772 0.30338 0.33394 0.68395 0.15038 1.0309-0.17304 0.36549 0.086466 0.71059 0.21791 1.0269-0.055905 0.26591-0.057674 0.49375 0.20033 0.62881 0.17796 0.35324 0.56612 0.48558 0.71343 0.86688 0.20082 0.15416 0.44586 0.04798 0.65952 0.2269 0.38477-0.10775 0.61588 0.41839 0.9991 0.35973 0.34382-0.01193 0.67752-0.21883 0.981-0.24637 0.29682 0.10392 0.60546 0.13833 0.90912 0.08469 0.44548 0.10018 0.34531-0.52836 0.48996-0.79681-0.10003-0.29729 0.095581-0.39675 0.32605-0.20166 0.39439 0.10161 0.57472-0.3944 0.72246-0.67703 0.12503-0.32735 0.28936-0.63159 0.4506-0.93822 0.19249-0.53134 0.096769-1.1521-0.12306-1.673-0.091694-0.34421-0.39753-0.2507-0.60813-0.21424-0.016901-0.31194 0.055454-0.79463-0.41249-0.65329-0.28855 0.02785-0.99689-0.05174-0.77728-0.49624 0.13604-0.39656-0.36376-0.67394-0.62163-0.88951-0.3497-0.11839-0.62066-0.36572-0.88763-0.56959-0.34112 0.0677-0.71838-0.02022-0.93354-0.34056-0.19194-0.24742-0.051326-0.06356 0.027301 0.06192" fill="#fff" stroke="#000" stroke-width=".5871"/>
  <path d="m8.0176 15.636s1.4105-3.7093 1.7497-5.1893c0.31774-1.3848 0.27695-3.4979-0.19859-3.8898-0.47554-0.39075-1.1003 0.28559-1.1658 1.087-0.065479 0.80142-0.1213 1.0029 0.19752 2.5316 0.14492 0.69184 0.072992 2.3345-0.12345 3.1094-0.19644 0.77486-0.62582 2.5404-0.45944 2.3511z" fill-opacity=".22346" stroke-width=".10901"/>
 </g>
</svg>
